<svg width="1024" height="1024" version="1.1" xmlns="http://www.w3.org/2000/svg" desc="Created with imagetracer.js version 1.2.6" ><path fill="rgb(0,0,0)" stroke="rgb(0,0,0)" stroke-width="1" opacity="0" d="M 0 0 L 1024 0 L 1024 1024 L 0 1024 L 0 0 Z M 415 256 L 388 261 Q 370 267 357 278 Q 337 293 327 318 L 322 334 L 319 350 L 319 360 L 318 361 L 319 383 L 320 384 L 322 402 L 327 422 L 330 429 L 330 431 L 315 451 Q 309 461 306 475 L 306 490 L 308 498 Q 309 506 305 511 L 251 608 L 243 627 L 243 635 L 249 647 L 249 668 L 253 678 Q 258 687 271 688 L 276 699 Q 280 705 289 708 L 312 712 L 329 711 L 335 709 L 365 691 L 370 692 L 408 692 L 419 698 L 427 711 L 449 767 L 450 768 L 769 768 L 769 766 L 751 738 L 735 711 L 734 707 L 731 704 L 701 651 L 667 594 L 661 596 L 645 597 L 644 598 L 619 597 L 591 590 Q 563 580 543 562 L 527 546 L 523 539 L 520 525 Q 520 505 530 496 L 543 487 L 557 485 L 567 482 Q 578 477 588 469 Q 602 456 610 436 L 613 423 Q 612 414 614 409 L 595 409 L 594 410 L 550 410 L 535 413 L 515 423 L 510 427 Q 517 398 534 381 Q 545 369 561 362 L 583 355 L 592 355 L 593 354 L 614 355 L 623 358 L 627 358 L 645 366 L 655 373 Q 666 382 674 396 L 682 416 L 685 431 L 685 450 L 681 468 Q 675 484 665 496 L 652 508 L 634 518 L 621 522 L 604 523 L 603 524 L 602 523 L 590 523 L 577 520 L 563 513 L 558 512 L 554 513 L 548 520 Q 548 529 553 534 Q 570 551 594 561 L 610 566 L 620 568 L 627 568 L 628 569 L 649 569 L 657 567 L 663 567 L 682 562 Q 710 552 731 534 Q 755 513 769 482 L 778 453 L 779 441 L 780 440 L 780 431 L 781 430 L 781 409 L 780 408 L 779 392 L 773 367 Q 761 333 740 310 Q 728 296 714 286 L 687 271 L 684 271 L 664 263 L 660 263 L 647 259 L 633 258 L 632 257 L 622 257 L 621 256 L 582 257 L 550 263 Q 545 267 538 267 Q 498 281 472 308 Q 473 310 471 309 Q 438 342 424 392 L 405 392 L 393 395 L 403 364 L 411 346 L 429 316 L 444 297 Q 458 280 476 268 Q 478 269 477 267 L 467 262 L 451 258 L 437 257 L 436 256 L 415 256 Z " /><path fill="rgb(0,0,0)" stroke="rgb(0,0,0)" stroke-width="1" opacity="0.9921568627450981" d="M 414.5 256 L 435.5 256 L 436.5 257 L 450.5 258 L 466.5 262 L 477 266.5 Q 477.8 268.8 475.5 268 Q 458 280.5 444 296.5 L 429 315.5 L 411 345.5 L 403 363.5 L 393 395 L 404.5 392 L 424 392 Q 437.9 341.6 470.5 309 Q 472.8 309.8 472 307.5 Q 498.4 280.9 537.5 267 Q 545 266.5 549.5 263 L 581.5 257 L 620.5 256 L 621.5 257 L 631.5 257 L 632.5 258 L 646.5 259 L 659.5 263 L 663.5 263 L 683.5 271 L 686.5 271 L 713.5 286 Q 728.3 296.3 740 309.5 Q 761.3 333.2 773 366.5 L 779 391.5 L 780 407.5 L 781 408.5 L 781 429.5 L 780 430.5 L 780 439.5 L 779 440.5 L 778 452.5 L 769 481.5 Q 754.9 512.9 730.5 534 Q 709.8 551.8 681.5 562 L 662.5 567 L 656.5 567 L 648.5 569 L 627.5 569 L 626.5 568 L 619.5 568 L 609.5 566 L 593.5 561 Q 569.8 550.8 553 533.5 Q 547.8 529.2 548 519.5 L 553.5 513 L 557.5 512 L 562.5 513 L 576.5 520 L 589.5 523 L 601.5 523 L 602.5 524 L 603.5 523 L 620.5 522 L 633.5 518 L 651.5 508 L 665 495.5 Q 675.2 483.7 681 467.5 L 685 449.5 L 685 430.5 L 682 415.5 L 674 395.5 Q 666.1 382.4 654.5 373 L 644.5 366 L 626.5 358 L 622.5 358 L 613.5 355 L 592.5 354 L 591.5 355 L 582.5 355 L 560.5 362 Q 545.2 369.2 534 380.5 Q 516.6 398.1 510 426.5 L 514.5 423 L 534.5 413 L 549.5 410 L 593.5 410 L 594.5 409 L 614 409 Q 612.3 413.9 613 422.5 L 610 435.5 Q 602.2 455.7 587.5 469 Q 578.5 477 566.5 482 L 556.5 485 L 542.5 487 L 530 495.5 Q 520.4 505.4 520 524.5 L 523 538.5 L 527 545.5 L 542.5 562 Q 562.8 579.7 590.5 590 L 618.5 597 L 643.5 598 L 644.5 597 L 660.5 596 L 666.5 594 L 701 650.5 L 731 703.5 L 734 706.5 L 735 710.5 L 751 737.5 L 769 765.5 L 769 768 L 449.5 768 L 449 766.5 L 427 710.5 L 418.5 698 L 407.5 692 L 369.5 692 L 364.5 691 L 334.5 709 L 328.5 711 L 311.5 712 L 288.5 708 Q 280.4 705.1 276 698.5 L 270.5 688 Q 258 686.5 253 677.5 L 249 667.5 L 249 646.5 L 243 634.5 L 243 626.5 L 251 607.5 L 305 510.5 Q 308.9 506.4 308 497.5 L 306 489.5 L 306 474.5 Q 308.7 460.7 315 450.5 L 330 430.5 L 330 428.5 L 327 421.5 L 322 401.5 L 320 383.5 L 319 382.5 L 318 360.5 L 319 359.5 L 319 349.5 L 322 333.5 L 327 317.5 Q 337.2 293.2 356.5 278 Q 369.8 267.3 387.5 261 L 414.5 256 Z " /></svg>